<svg version="1.1" id="Layer_1" xmlns="http://www.w3.org/2000/svg" xmlns:xlink="http://www.w3.org/1999/xlink" x="0px" y="0px"
	 width="100%" viewBox="0 0 1024 624" enable-background="new 0 0 1024 624" xml:space="preserve">
<path fill="#000000" opacity="1.000000" stroke="none" 
	d="
M42.348518,369.723389 
	C61.657738,295.073059 80.805977,220.826324 100.010201,146.594086 
	C109.424477,110.204056 119.028671,73.862938 128.354187,37.450321 
	C130.720383,28.211212 138.313599,26.556412 145.657806,24.779043 
	C153.357590,22.915627 161.271149,24.071880 169.050491,24.804249 
	C196.387360,27.377823 223.468582,31.775688 250.473907,36.649792 
	C305.651917,46.608692 360.413849,58.538982 415.038727,71.155991 
	C479.412567,86.024773 543.495239,102.044174 607.358521,118.956558 
	C664.321899,134.041733 721.058350,149.928680 777.488708,166.909119 
	C827.715271,182.022751 877.720764,197.805023 926.821533,216.302414 
	C942.406311,222.173538 957.884094,228.385696 972.328613,236.812531 
	C975.763489,238.816467 979.094910,241.010056 981.446960,244.428192 
	C985.417175,250.197922 986.540344,255.805008 984.586975,263.092407 
	C973.391113,304.859253 963.046875,346.853607 951.990112,388.658722 
	C945.153442,414.507874 938.472534,440.388245 931.980225,466.326996 
	C922.046875,506.013489 911.361816,545.511841 900.992554,585.089172 
	C900.908325,585.410706 900.710632,585.714172 900.681030,586.036621 
	C899.320984,600.859314 889.383057,604.293091 877.427368,604.409790 
	C855.175842,604.626831 833.318237,601.227051 811.450439,597.780884 
	C807.501526,597.158569 803.688599,596.539246 800.053833,599.421692 
	C780.148315,615.206909 757.799377,619.549194 732.825562,615.243774 
	C718.210144,612.724121 703.722900,609.871399 689.451294,606.027283 
	C669.940369,600.772095 655.683838,588.338867 645.640381,571.185852 
	C642.561157,565.926880 638.820984,563.399963 633.025208,562.128357 
	C585.574707,551.717468 538.410522,540.090881 491.356354,528.027771 
	C487.817078,527.120422 486.010651,528.642883 484.034027,530.703125 
	C476.329163,538.733826 467.402161,544.994141 457.219818,549.497742 
	C444.457611,555.142395 431.339935,557.077515 417.318848,555.489075 
	C397.898468,553.289062 378.793396,549.771484 360.250183,543.762817 
	C342.111511,537.885315 329.388214,525.181580 319.883270,509.032227 
	C315.215424,501.101379 312.039398,492.547943 309.287598,483.772919 
	C306.712799,475.562317 296.045288,473.058624 289.856506,478.892059 
	C283.928864,484.479340 277.166534,487.544159 268.739319,487.530182 
	C257.801666,487.512024 247.287872,486.078033 236.853851,482.621460 
	C223.894821,478.328369 216.881302,469.169800 214.031616,456.522491 
	C212.944473,451.697601 210.460175,449.599609 206.065994,448.216980 
	C170.651871,437.074005 135.344864,425.600739 100.680031,412.262573 
	C85.290459,406.341064 69.905693,400.384064 55.576691,392.080353 
	C52.542912,390.322266 49.578510,388.468811 47.083660,385.965393 
	C42.678955,381.545624 40.411983,376.463928 42.348518,369.723389 
M389.653473,489.727509 
	C417.967072,497.201630 446.075470,505.458466 474.637329,511.986603 
	C479.401306,513.075439 484.216309,513.448120 489.032013,512.745728 
	C495.003693,511.874695 499.282379,507.011688 500.354706,500.361633 
	C501.297150,494.516663 497.034149,492.517456 492.978973,490.490570 
	C489.951569,488.977417 487.272888,487.102997 484.985168,484.608063 
	C482.007294,481.360565 478.114960,480.390472 474.065643,480.087891 
	C473.688721,480.652954 473.413818,480.902649 473.337799,481.202698 
	C471.535614,488.317352 469.192780,491.215363 464.710083,491.150696 
	C458.560760,491.062073 456.962738,486.674957 455.756073,481.599304 
	C454.495758,476.298187 445.724731,469.100769 440.310669,469.051239 
	C431.237061,468.968231 426.108459,463.358063 421.916504,456.526703 
	C418.684967,451.260620 419.999451,447.479675 425.539978,444.719788 
	C432.902557,441.052246 439.813568,436.817383 445.016235,430.257965 
	C448.116608,426.349121 450.839203,422.042938 454.412567,418.627869 
	C461.187042,412.153595 464.471619,404.196716 467.309204,395.454407 
	C469.857941,387.602051 473.528595,380.049255 476.134979,372.137909 
	C476.978485,369.577545 478.379761,367.192749 480.320007,365.386383 
	C486.168243,359.941742 488.197144,352.910889 489.400391,345.373840 
	C491.308014,333.424347 497.290222,323.915405 507.240021,317.017853 
	C527.931763,302.673584 551.113098,299.713074 575.062866,304.286957 
	C599.048523,308.867706 622.731689,315.057312 646.504822,320.720490 
	C681.288452,329.006653 716.157349,336.911285 751.134033,344.334045 
	C786.938660,351.932495 822.802124,359.245270 858.901428,365.331848 
	C863.492737,366.105957 868.076477,366.588135 872.490784,363.952545 
	C875.433716,362.195374 878.286255,362.969116 880.306641,365.937927 
	C881.349304,367.470032 882.419861,369.062744 884.403015,369.362885 
	C899.377075,371.628876 914.337219,374.171875 929.549927,373.941895 
	C934.922302,373.860687 936.575256,371.554413 935.860229,366.159668 
	C935.231750,361.418213 933.007751,357.221588 930.576660,353.289459 
	C924.824524,343.985931 920.187195,334.509033 919.325684,323.245117 
	C918.813049,316.542877 915.845947,314.452057 909.172302,315.124573 
	C900.865356,315.961731 895.797729,311.251984 890.782043,306.016541 
	C889.520325,304.699463 888.521301,303.132996 887.281616,301.792084 
	C881.875244,295.944366 881.888000,294.150055 888.268311,289.138000 
	C892.562622,285.764526 892.714905,281.561554 891.314880,277.007172 
	C889.911926,272.443329 887.097595,269.596497 881.796021,269.980682 
	C876.207642,270.385620 870.829041,269.234711 865.787170,266.804871 
	C860.463745,264.239380 859.678284,260.482849 862.681702,255.365204 
	C864.271423,252.656525 867.523132,252.071869 869.766113,248.958511 
	C848.961121,243.073944 828.260315,239.979889 807.538025,237.051285 
	C806.302368,243.083954 800.792480,246.925232 794.151855,246.921280 
	C792.153198,246.920090 789.894348,247.059418 788.778442,245.035309 
	C787.592651,242.884491 788.704468,240.769608 789.896484,238.959915 
	C793.329468,233.748352 793.389526,233.363617 787.098328,231.901871 
	C763.269897,226.365387 739.337158,221.269623 715.552490,215.555038 
	C678.968689,206.765274 642.447510,197.710220 605.949463,188.569092 
	C556.542847,176.194916 507.009583,164.324753 457.987579,150.430771 
	C436.408478,144.314728 414.554169,139.165741 393.065948,132.691223 
	C390.648987,131.962982 388.732910,132.188782 386.773682,134.197159 
	C379.801422,141.344299 374.788879,150.017670 367.998962,157.368454 
	C357.760956,168.452133 347.498474,179.262360 333.485321,185.586426 
	C326.775421,188.614563 320.375244,192.124191 314.534851,196.620224 
	C300.908295,207.110138 288.993866,219.449646 277.101868,231.768677 
	C271.977051,237.077515 268.716034,243.662308 267.163086,251.084015 
	C264.418579,264.200043 265.935852,276.913727 270.007782,289.481567 
	C272.229645,296.339355 274.097076,303.297668 272.945160,310.572754 
	C270.940369,323.234589 269.152161,335.966675 263.878937,347.843506 
	C261.843872,352.426971 260.306915,357.179138 259.259766,362.084747 
	C256.709442,374.032196 261.874237,388.054108 272.505249,394.097107 
	C285.981140,401.757202 297.553040,412.337189 311.667847,418.938629 
	C314.127563,420.089081 315.626129,422.399719 317.350159,424.454285 
	C323.112976,431.321869 323.536469,440.890625 329.405334,447.773834 
	C331.065521,449.720978 330.312744,452.971954 329.506409,455.545227 
	C328.763275,457.916931 327.885223,460.299896 326.676331,462.459412 
	C324.931946,465.575653 325.828247,467.488739 328.441284,469.670654 
	C332.953339,473.438202 338.225891,475.209259 343.701843,476.752899 
	C358.762756,480.998444 373.806427,485.305115 389.653473,489.727509 
M345.989899,107.497887 
	C371.569000,114.873787 397.096649,122.434334 422.739899,129.580032 
	C456.722260,139.049469 490.776123,148.264343 524.836731,157.449768 
	C541.856689,162.039688 558.971985,166.276917 576.348145,169.336166 
	C580.871704,170.132584 583.367676,168.124374 581.585327,164.505829 
	C579.282227,159.830124 577.032959,155.192596 575.235901,150.298492 
	C574.902649,149.390808 573.509460,148.800522 572.514954,148.218323 
	C560.691833,141.296631 548.120544,136.114853 534.981018,132.308990 
	C531.792358,131.385391 528.137451,131.478531 525.329102,129.945892 
	C516.941528,125.368431 507.719482,125.085205 498.683319,124.310722 
	C491.995117,123.737480 485.792633,122.247955 480.373932,118.494431 
	C475.676910,115.240837 471.385406,111.661057 465.065735,113.646461 
	C464.120178,113.943520 462.735901,113.373192 461.730133,112.860069 
	C456.824402,110.357262 451.624603,109.956367 446.212891,109.962448 
	C440.903748,109.968414 435.586365,109.376274 430.287109,108.888504 
	C427.107666,108.595863 423.951111,107.827637 421.522156,105.620300 
	C417.360962,101.838783 411.450439,100.293480 408.364929,95.115509 
	C407.519897,93.697388 405.704620,94.062111 404.228943,93.872391 
	C394.220154,92.585556 383.971588,92.190300 375.230255,86.105980 
	C374.456726,85.567551 373.333008,85.167198 372.422333,85.250862 
	C367.052765,85.744102 362.584320,83.307701 357.794983,81.448036 
	C346.798462,77.178177 335.285370,74.567451 323.742950,72.176567 
	C305.039642,68.302399 286.384552,64.170082 267.615265,60.646450 
	C245.719360,56.535835 223.763214,52.636829 201.544739,50.685379 
	C196.397385,50.233288 191.138153,51.055004 185.834061,51.294937 
	C186.220352,54.214462 188.175049,54.258018 189.582199,54.887142 
	C210.897995,64.417206 233.082840,71.607132 255.234543,78.815269 
	C285.147705,88.548973 315.222992,97.784286 345.989899,107.497887 
M739.257324,209.198868 
	C747.385071,210.977768 755.503662,212.800247 763.643860,214.520172 
	C769.011719,215.654343 769.692078,215.092102 770.271423,209.391541 
	C772.770203,208.981644 775.325134,208.175934 777.166138,210.498871 
	C777.164551,213.602997 773.374695,212.954727 773.152405,215.643372 
	C774.295593,216.978531 776.006409,217.201202 777.577332,217.549103 
	C792.682495,220.894470 807.765686,224.351517 822.919983,227.460388 
	C850.807922,233.181519 878.872070,237.951447 906.990356,242.382950 
	C911.431274,243.082870 916.021057,243.314087 920.698730,242.109222 
	C918.848267,238.638535 917.765320,237.645370 914.905151,236.293381 
	C899.260315,228.898300 883.247253,222.439804 866.828003,216.951691 
	C846.952393,210.308304 827.246460,203.186462 807.000916,197.639374 
	C798.046326,195.185883 789.101562,192.705444 780.139282,190.275665 
	C767.111694,186.743729 754.804077,180.707321 741.058655,179.554077 
	C737.826294,179.282898 733.756226,179.727570 731.420166,178.053192 
	C725.124146,173.540390 718.007324,171.416611 710.841370,169.525208 
	C703.422119,167.566971 696.142273,163.364471 688.125122,165.814606 
	C682.519531,167.527771 676.880676,168.736496 671.104736,169.552795 
	C669.328064,169.803909 667.484619,170.385559 665.933167,171.272873 
	C661.656067,173.718994 661.266357,177.334427 665.114380,180.306778 
	C667.899231,182.457886 669.229309,185.056137 669.145935,188.422974 
	C669.071106,191.443710 670.600525,193.037842 673.345581,193.758926 
	C675.918579,194.434784 678.474487,195.183731 681.065125,195.782730 
	C700.192505,200.205292 719.326660,204.598373 739.257324,209.198868 
M724.975281,533.524658 
	C719.384583,526.992981 712.472961,526.653503 705.006653,529.404114 
	C700.642944,531.011658 696.259216,532.633545 692.074646,534.644531 
	C683.333618,538.845398 673.082336,540.049011 666.134644,547.861694 
	C663.403320,550.933044 663.769226,555.177429 667.518738,556.864563 
	C670.233643,558.086121 673.141357,558.962769 676.040833,559.677673 
	C708.488953,567.677979 741.292114,573.965088 774.216919,579.602295 
	C779.263000,580.466309 784.232727,582.236328 789.479980,581.815369 
	C794.252258,581.432556 798.196899,576.753174 795.698364,574.026428 
	C790.647156,568.513977 787.039368,561.268250 779.253845,558.659607 
	C770.092590,555.590088 761.267883,551.759583 752.655579,547.375000 
	C747.624817,544.813782 742.760315,541.775635 737.239685,540.343445 
	C732.763672,539.182251 728.930969,537.021240 724.975281,533.524658 
M667.173462,428.486603 
	C652.882324,425.324493 638.558411,422.302094 624.307800,418.966858 
	C603.898987,414.190338 583.549377,409.160828 563.157837,404.309601 
	C560.685120,403.721375 557.590759,403.422028 556.907776,406.584198 
	C556.188721,409.913452 559.572998,409.821442 561.648865,410.384277 
	C575.951416,414.261963 590.548401,416.939514 604.899536,420.520203 
	C618.629028,423.945740 632.813538,425.745911 645.847900,432.297943 
	C651.832458,435.306152 659.131531,436.275696 665.847107,437.965149 
	C688.273865,443.607208 710.813843,448.882294 733.473999,453.494324 
	C766.088745,460.132416 798.850281,466.048096 831.539368,472.323517 
	C835.145691,473.015869 838.606445,473.118835 839.421509,468.737976 
	C840.174866,464.688843 837.557190,462.741974 833.710327,462.098938 
	C823.876404,460.455139 814.031372,458.857208 804.239258,456.987274 
	C758.672974,448.285553 713.259338,438.842712 667.173462,428.486603 
M490.350098,151.302353 
	C460.357361,142.963928 430.331909,134.740952 400.381104,126.254570 
	C370.422302,117.765923 340.638031,108.676277 310.782196,99.835373 
	C281.263947,91.094452 252.324326,80.401917 222.450775,72.860435 
	C239.255615,85.736656 558.130310,177.978729 590.693848,179.500854 
	C558.099731,168.111023 524.312866,160.874130 490.350098,151.302353 
M682.066223,199.509506 
	C664.578003,195.796570 647.089783,192.083633 629.601501,188.370682 
	C629.476501,188.961807 629.351440,189.552917 629.226379,190.144028 
	C635.864624,191.850250 642.539856,193.425156 649.134827,195.284836 
	C682.311218,204.640167 715.987488,211.942505 749.603943,219.431122 
	C793.947083,229.309296 838.416992,238.622543 883.216797,246.268890 
	C907.828674,250.469620 932.476379,254.396545 957.386902,256.330292 
	C960.510925,256.572784 964.291138,257.037079 966.320496,252.973404 
	C963.335510,251.434494 960.512268,251.288284 957.707520,251.406265 
	C951.176575,251.681061 944.708801,250.800690 938.291382,250.008896 
	C903.785156,245.751389 869.558289,239.710144 835.466064,232.957993 
	C784.395325,222.843094 733.517212,211.819489 682.066223,199.509506 
M716.206665,454.426361 
	C715.558289,454.281403 714.894958,454.183472 714.263916,453.983734 
	C710.587341,452.820435 706.632141,451.898560 703.029541,452.780518 
	C699.656189,453.606384 701.839233,457.898987 700.304443,460.222198 
	C700.122375,460.497925 700.037476,460.841705 699.840088,461.102966 
	C697.608887,464.054901 698.291748,466.750061 700.721558,469.112854 
	C705.028931,473.301422 708.546448,478.148163 712.421326,482.698730 
	C719.358337,490.845642 730.727539,490.210236 737.430420,485.897034 
	C745.467957,480.725006 750.159973,472.695770 754.905518,464.569153 
	C751.675476,462.460846 748.588867,460.665588 744.874573,459.982056 
	C735.582947,458.272034 726.323608,456.386383 716.206665,454.426361 
M521.831970,384.696442 
	C511.423553,375.312469 503.279846,364.685883 502.513062,349.922455 
	C502.456360,348.830627 501.818024,347.699951 501.230347,346.719025 
	C499.974487,344.622803 497.931305,343.908112 495.641235,344.322449 
	C493.039215,344.793243 493.028198,347.007050 492.980621,349.024658 
	C492.921356,351.535309 493.499634,353.945435 494.050964,356.394379 
	C495.051361,360.837799 498.709900,363.600891 500.560822,367.521454 
	C510.472870,388.517029 528.514771,399.784637 549.262939,407.693787 
	C550.429321,408.138367 551.956116,408.819397 552.961487,407.484070 
	C554.025085,406.071533 553.937561,404.290344 553.339600,402.720215 
	C552.741150,401.149109 551.028320,400.968201 549.646484,400.460083 
	C539.736389,396.816193 530.517334,391.943176 521.831970,384.696442 
M904.265564,479.968323 
	C905.222351,479.682312 906.218750,479.487488 907.128540,479.093018 
	C909.746948,477.957794 914.144592,477.892487 913.769714,474.302368 
	C913.378174,470.552917 909.063293,470.461945 906.001526,470.478363 
	C890.957764,470.559082 876.153992,468.269989 861.301514,466.385498 
	C859.427979,466.147766 856.949402,465.126953 855.797852,467.294312 
	C854.579346,469.587769 855.203491,472.239655 856.558960,474.437286 
	C857.706421,476.297821 859.804810,476.598877 861.820801,476.838196 
	C867.105469,477.465515 872.376343,478.266052 877.677368,478.685791 
	C886.255554,479.365082 894.751526,481.645599 904.265564,479.968323 
M495.222778,337.518219 
	C495.547028,340.792084 498.135651,340.744232 500.413208,340.891754 
	C502.682556,341.038757 504.076447,339.639038 504.971283,337.664490 
	C506.337799,334.649231 507.879517,331.701721 509.048523,328.612518 
	C509.886353,326.398499 511.304657,324.111786 509.561462,320.797180 
	C501.958374,323.739380 498.275238,329.916809 495.222778,337.518219 
M824.044861,429.539734 
	C824.397095,426.613861 826.361511,423.775574 824.781006,420.529449 
	C820.804565,423.635986 815.454834,444.029907 817.518616,450.055634 
	C821.176453,443.375580 821.655212,436.545044 824.044861,429.539734 
M465.716583,485.459900 
	C462.428925,487.232391 462.748871,483.003143 460.593536,482.264313 
	C460.156158,485.372711 461.740448,486.997070 464.208771,487.103729 
	C466.935211,487.221527 468.528137,485.541351 468.352142,481.407562 
	C467.251740,483.225342 466.711517,484.117767 465.716583,485.459900 
z"/>
<path fill="#000000" opacity="1.000000" stroke="none" 
	d="
M730.415527,201.493774 
	C734.213440,197.925049 736.417908,202.969742 739.693176,202.732254 
	C736.176331,205.444702 733.071350,205.473251 730.415527,201.493774 
z"/>
</svg>